# xmcd
#
# Track frame offsets: 
#        300
#        25544
#        55514
#        79264
#        111335
#        130869
#        163722
#        173504
#        190801
#
# Disc length: 2811 seconds
#
# Revision: 0
# Processed by: cddbd v1.5.2PL0 Copyright (c) Steve Scherf et al.
# Submitted via: ExactAudioCopy v0.99pb4
#
DISCID=680af709
DTITLE=John Campbell - 2 meter sessies(Bootleg) 
DYEAR=1991
DGENRE=Blues
TTITLE0=Broken Spell (not sure)
TTITLE1=Person to person
TTITLE2=World of trouble
TTITLE3=Saddle up my pony
TTITLE4=Wolf among the lambs
TTITLE5=When the levee breaks
TTITLE6=Wolf among the lambs - Interview (cut short)
TTITLE7=Interview (continued from previous track)
TTITLE8=Angel of sorrow
EXTD=
EXTT0=
EXTT1=
EXTT2=
EXTT3=
EXTT4=
EXTT5=
EXTT6=
EXTT7=
EXTT8=
PLAYORDER=
